<?xml version="1.0" encoding="utf-8"?>
<!-- Generator: Adobe Illustrator 22.0.0, SVG Export Plug-In . SVG Version: 6.00 Build 0)  -->
<svg version="1.1" id="Layer_1" xmlns="http://www.w3.org/2000/svg" xmlns:xlink="http://www.w3.org/1999/xlink" x="0px" y="0px"
	 viewBox="0 0 1200 300" style="enable-background:new 0 0 1200 300;" xml:space="preserve">
<style type="text/css">
	.st0{fill:none;stroke:#000000;stroke-miterlimit:10;}
</style>
<path class="st0" d="M965.1,120.1c0,0,115.7,37.5,207.7-9.2"/>
<path class="st0" d="M965.1,75.2c0,0,116.7,51.7,207.7,5.6"/>
<rect x="1156.2" y="43.7" width="43.8" height="8.8"/>
<rect x="1172.8" y="22.4" width="12.1" height="279"/>
<path class="st0" d="M728.8,120.1c0,0,115.4,50.7,225,0"/>
<path class="st0" d="M728.8,85c0,0,127.5,31.3,225-9.8"/>
<rect x="939" y="47.9" width="37.8" height="9.2"/>
<rect x="951.8" y="29.4" width="13.4" height="272"/>
<path class="st0" d="M504.9,103.5c0,0,74,48.3,209.5,18.8"/>
<path class="st0" d="M504.9,80.8c0,0,139.9,28.4,209.5,5"/>
<rect x="699.8" y="39" width="43.6" height="8.9"/>
<rect x="714.4" y="17.5" width="14.4" height="284"/>
<path class="st0" d="M20.2,103.5"/>
<path class="st0" d="M34.6,107.3c0,0,45.3,63.7,216.4,10.2"/>
<path class="st0" d="M264.9,118.3c0,0,133.4,60.1,225.2-14.8"/>
<path class="st0" d="M264.9,64.3c0,0,82.7,83.9,225.2,17.4"/>
<path class="st0" d="M34.6,64.3c0,0,156.4,59.9,216.4,0"/>
<rect x="20.2" y="17.5" width="14.4" height="284"/>
<rect x="4" y="38.2" width="48.6" height="7.4"/>
<rect x="251" y="22" width="13.9" height="279.5"/>
<rect x="234.7" y="41.9" width="48.6" height="6.9"/>
<rect x="490" y="22" width="14.8" height="279.5"/>
<rect x="473.8" y="45.4" width="49.1" height="6.7"/>
</svg>
